<?xml version="1.0" standalone="no"?><!DOCTYPE svg PUBLIC "-//W3C//DTD SVG 1.1//EN" "http://www.w3.org/Graphics/SVG/1.1/DTD/svg11.dtd"><svg t="1527496878246" class="icon" style="" viewBox="0 0 1025 1024" version="1.1" xmlns="http://www.w3.org/2000/svg" p-id="554" xmlns:xlink="http://www.w3.org/1999/xlink" width="200.1953125" height="200"><defs><style type="text/css"></style></defs><path d="M512.01844 0C229.22742 0 0 229.234796 0 512.011064c0 282.761516 229.22742 511.988936 512.01844 511.988936 282.768892 0 511.996312-229.22742 511.996312-511.988936C1024.014752 229.234796 794.787331 0 512.01844 0zM810.239788 358.283092 436.629629 731.789989c-3.031484 2.751201-6.483393 4.049355-10.134451 4.049355-3.997724 0-7.75942-1.556309-10.577004-4.381269L243.22683 558.759355c-2.82496-2.82496-4.381269-6.57928-4.381269-10.577004 0-3.990348 1.556309-7.744668 4.388645-10.569628 5.635168-5.642544 15.489336-5.642544 21.13188 0l161.841433 161.841433 362.605355-362.612731c5.731054-5.723678 15.703236-5.723678 21.434291 0C816.147863 342.764253 816.147863 352.375017 810.239788 358.283092z" p-id="555" fill="#1afa29"></path></svg>